# xmcd CD database file
#
# Track frame offsets:
#	150
#	41163
#	76097
#	108678
#	145150
#	180351
#	205594
#	230090
#	257176
#
# Disc length: 3906 seconds
#
# Revision: 0
# Processed by: cddbd v1.5.1PL2 Copyright (c) Steve Scherf et al.
# Submitted via: CDex 1.60beta1
#
DISCID=770f4009
DTITLE=Jukkis Uotila - Meninas
DYEAR=2005
DGENRE=Jazz
TTITLE0=Mellow Yellow
TTITLE1=Tranquility
TTITLE2=Isla De Angeles
TTITLE3=The Ketchup Song
TTITLE4=Meninas
TTITLE5=American Tabloid
TTITLE6=On Green Dolphin Street
TTITLE7=The Feel
TTITLE8=Mimosa Amarelo
EXTD=YEAR: 2005
EXTT0=
EXTT1=
EXTT2=
EXTT3=
EXTT4=
EXTT5=
EXTT6=
EXTT7=
EXTT8=
PLAYORDER=
